<svg version="1.1" id="Layer_1" xmlns="http://www.w3.org/2000/svg" x="0" y="0" viewBox="0 0 256 256" style="enable-background:new 0 0 256 256" xml:space="preserve"><style>.st6{fill:#f0c020}.st7{fill:#f8e5b0}</style><path class="st6" d="m127.276 109.081-6.365 6.365-98.405 98.414c-4.33 4.32-11.34 4.32-15.67 0-4.32-4.33-4.32-11.34 0-15.67l98.415-98.405 6.365-6.365 15.66 15.661z"/><path style="fill:#e8a61b" d="m127.276 109.081-6.361 6.37-15.669-15.67 6.37-6.36z"/><path d="M252.423 102.79c-2.9 38.41-50.38 85.98-88.88 88.88l-2.87-13.58c35.61-9.39 68.78-42.59 78.17-78.17l13.58 2.87z" style="fill:#afafaf"/><path d="M238.843 99.92c-9.39 35.58-42.56 68.78-78.17 78.17l-9.53-45.14c4.56-4.65 4.54-12.13-.09-16.76s-12.11-4.64-16.76-.09l-26.16-26.16a4.985 4.985 0 0 1 0-7.07l35.48-35.49a5.016 5.016 0 0 1 7.08 0l3.48 3.48 15.66 15.66 7.02 7.02c-4.57 4.69-4.53 12.15.09 16.76 4.63 4.63 12.11 4.65 16.76.09l45.14 9.53z" style="fill:#fc5d3d"/><path d="m166.423 164.182-5.983-28.341a2.512 2.512 0 0 1 .233-1.681c3.977-7.557 2.967-17.401-3.609-23.978-5.427-5.424-13.113-7.174-20.054-5.198a2.497 2.497 0 0 1-2.452-.637l-6.479-6.479a2.498 2.498 0 0 1 0-3.535 2.498 2.498 0 0 1 3.535 0l5.476 5.476c8.186-1.82 17.086.417 23.51 6.839 7.914 7.911 9.4 19.659 4.914 29.017l5.164 24.458c22.031-10.295 42.014-30.791 51.437-52.979 1.293-3.039 5.895-1.091 4.602 1.955-10.455 24.621-32.246 46.412-56.868 56.868a2.503 2.503 0 0 1-3.426-1.785zm-45.416-73.383-2.626-2.627a2.5 2.5 0 1 1 3.536-3.535l2.626 2.627a2.5 2.5 0 1 1-3.536 3.535z" style="fill:#ffcbc3"/><path class="st7" d="M17.978 207.009a2.5 2.5 0 0 1 0-3.535l91.755-91.745a2.5 2.5 0 1 1 3.536 3.535l-91.755 91.745a2.5 2.5 0 0 1-3.536 0z"/><path class="st6" d="m178.553 57.804-8.72 8.72-15.66-15.66 8.72-8.72c4.32-4.33 11.34-4.33 15.66 0 4.318 4.318 4.347 11.314 0 15.66z"/><path class="st7" d="M162.385 62.61a2.508 2.508 0 0 1 0-3.54l8.13-8.13c.95-.939 2.59-.939 3.54 0 .97.98.97 2.561 0 3.54l-8.13 8.13a2.508 2.508 0 0 1-3.54 0z"/><path d="M214.072 94.69a2.49 2.49 0 0 0 1.921 2.96c1.284.302 2.681-.537 2.97-1.92.28-1.35-.58-2.68-1.93-2.97-1.33-.28-2.69.611-2.961 1.93z"/><path d="M252.932 100.34c-16.655-3.508-10.701-2.252-26.12-5.51-1.33-.28-2.68.609-2.96 1.93a2.496 2.496 0 0 0 1.931 2.96l9.93 2.1c-9.68 32.71-40.43 63.46-73.15 73.15l-8.72-41.3c4.483-5.521 4.358-13.874-1.03-19.24-5.019-5.055-12.796-5.532-18.35-1.689l-5.373-5.373c-.017-.019-.029-.04-.047-.058l-15.66-15.66c-.017-.016-.037-.027-.054-.043l-3.437-3.437c-.983-.984-.973-2.578 0-3.53l35.49-35.49a2.495 2.495 0 0 1 3.54 0l24.56 24.561c-3.886 5.664-3.312 13.376 1.69 18.359 5.369 5.371 13.696 5.509 19.24 1.03l11.8 2.49c1.33.28 2.689-.61 2.97-1.93a2.507 2.507 0 0 0-1.93-2.96l-13.04-2.75a2.501 2.501 0 0 0-2.26.649c-3.646 3.583-9.556 3.614-13.25-.06a9.413 9.413 0 0 1-.061-13.25 2.5 2.5 0 0 0-.03-3.511l-5.253-5.255 6.954-6.955h.01c5.377-5.375 5.243-13.958-.01-19.189-5.247-5.29-13.882-5.33-19.189 0l-6.95 6.95-1.719-1.72c-2.884-2.902-7.654-2.954-10.61 0l-35.48 35.49c-2.947 2.948-2.911 7.698 0 10.61l1.709 1.709-41.479 41.47c-.97.97-.97 2.561 0 3.53.95.95 2.6.95 3.54 0l41.475-41.465 12.13 12.13L20.734 212.088c-3.34 3.34-8.771 3.359-12.13 0-3.371-3.373-3.327-8.824 0-12.13l47.39-47.4c.97-.97.97-2.56 0-3.53-.95-.939-2.59-.939-3.54 0L5.063 196.42a13.584 13.584 0 0 0 0 19.2c5.31 5.31 13.904 5.305 19.2.01 4.698-4.698 95.531-95.517 103.011-103.008l5.249 5.249c.94.939 2.57.949 3.521.02 3.634-3.572 9.534-3.616 13.24.07a9.353 9.353 0 0 1 2.76 6.66c0 5.721-3.907 6.163-3.351 8.85 11.193 53.016 8.687 41.152 12.4 58.71a2.503 2.503 0 0 0 2.44 1.99c.06 0 .13-.01.189-.01 15.965-1.23 31.824-9.46 44.55-18.971a2.502 2.502 0 0 0 .5-3.5c-.8-1.069-2.41-1.31-3.479-.52-.01.01-.01.01-.021.01-13.34 10.01-27.46 16.32-39.75 17.79l-1.929-9.115c34.925-10.278 66.719-42.07 77.011-77.004l9.109 1.919c-1.98 16.78-13.07 36.771-29.65 53.5a2.501 2.501 0 0 0 .01 3.54 2.51 2.51 0 0 0 3.54-.02c15.16-15.352 29.624-37.146 31.29-58.811a2.502 2.502 0 0 0-1.971-2.639zm-88.28-56.429c3.328-3.328 8.758-3.373 12.131 0a8.578 8.578 0 0 1 0 12.13l-6.95 6.95-12.13-12.131 6.949-6.949z"/><path d="M212.902 165c-1.043.917-1.139 2.508-.239 3.529a2.494 2.494 0 0 0 3.529.24 2.494 2.494 0 0 0 .24-3.529c-.87-.999-2.53-1.11-3.53-.24zM59.523 141.96c-.97.97-.97 2.56 0 3.53a2.488 2.488 0 0 0 3.54 0c.97-.971.97-2.561 0-3.53-.95-.95-2.591-.94-3.54 0z"/></svg>