<svg xmlns="http://www.w3.org/2000/svg" width="512" height="512" xml:space="preserve"><g><path fill="#71A3E3" d="M374.404 457.683 201.517 137.587 28.742 457.683z"/><path fill="#E3E3E3" d="m117.753 292.349 65.925-72.3 17.576 50.699 20.359-50.699 63.722 72.3-83.818-155.186z"/><path fill="#5C84B8" d="m69.753 381.525 22.26 46.335 58.92-73.814 45.732 50.552 54.453-27.41-49.863-106.434 20.358-50.702 63.722 72.511 89.069 165.12H28.779z"/><path fill="#4E709C" d="m322.771 360.527-14.373-25.158-132.096 122.314h198.102z"/><path fill="#71A3E3" d="m479.778 457.683-123.873-164.91-123.793 164.91z"/><path fill="#E3E3E3" d="m295.888 372.299 47.236-37.248 12.592 26.119 14.587-26.119 45.657 37.248-60.055-79.95z"/><path fill="#5C84B8" d="m261.496 418.345 15.95 23.819 42.215-38.054 32.767 26.031 39.016-14.128-35.727-54.836 14.587-26.123 45.656 37.459 63.818 85.17H232.139z"/><path fill="#8A532D" d="M102.3 426.683h-3.262l-1.962 31h7.186z"/><path fill="#62E07B" d="M112.614 414.418h3.751c.905 0 1.299-1.818.586-2.704l-7.484-9.301c-.713-.886-.319-2.704.586-2.704h1.695c.903 0 1.299-1.813.589-2.701l-6.067-7.591c-.71-.888-.315-2.701.589-2.701h.008c.904 0 1.299-1.815.588-2.702l-6.208-7.749c-.345-.431-.832-.431-1.177.001l-6.194 7.749c-.71.888-.315 2.701.589 2.701.903 0 1.299 1.811.589 2.7l-6.059 7.592c-.709.889-.314 2.7.589 2.7h1.687c.905 0 1.299 1.817.587 2.703l-7.476 9.302c-.712.886-.318 2.703.587 2.703h3.741c.905 0 1.299 1.817.587 2.703l-14.371 17.882c-.712.886-.318 2.703.587 2.703h50.308c.905 0 1.299-1.818.587-2.704l-14.382-17.881c-.711-.884-.317-2.701.588-2.701z"/><path fill="#8A532D" d="M137.833 434.683H135.473l-1.419 23h5.199z"/><path fill="#62E07B" d="M145.295 426.2h2.714c.655 0 .94-1.315.424-1.956l-5.414-6.729c-.516-.641-.23-1.956.424-1.956h1.227c.654 0 .94-1.311.426-1.954l-4.389-5.492c-.514-.643-.228-1.954.426-1.954h.005c.654 0 .94-1.313.425-1.955l-4.492-5.606c-.25-.312-.602-.312-.851.001l-4.481 5.606c-.514.643-.228 1.954.426 1.954.653 0 .94 1.311.426 1.953l-4.383 5.493c-.513.643-.227 1.953.426 1.953h1.221c.655 0 .94 1.315.425 1.956l-5.409 6.73c-.515.641-.23 1.956.425 1.956h2.706c.655 0 .94 1.315.425 1.956l-10.398 12.937c-.515.641-.23 1.956.425 1.956H154.852c.655 0 .94-1.315.424-1.956l-10.405-12.937c-.516-.641-.23-1.956.424-1.956z"/><path fill="#8A532D" d="M378.969 441.683h-1.67l-1.005 16H379.974z"/><path fill="#62E07B" d="M384.251 435.405h1.921c.463 0 .665-.931.3-1.385l-3.832-4.763c-.365-.454-.163-1.385.3-1.385h.868c.463 0 .665-.928.302-1.383l-3.107-3.887c-.363-.455-.161-1.383.302-1.383h.004c.463 0 .665-.929.301-1.384l-3.179-3.968c-.177-.221-.426-.221-.603.001l-3.172 3.968c-.364.455-.161 1.383.302 1.383.462 0 .665.928.302 1.383l-3.103 3.888c-.363.455-.161 1.383.302 1.383h.864c.463 0 .665.93.301 1.384l-3.828 4.763c-.365.454-.163 1.384.301 1.384h1.916c.463 0 .665.93.301 1.384l-7.359 9.157c-.365.454-.163 1.384.301 1.384h25.762c.463 0 .665-.931.3-1.385l-7.365-9.157c-.367-.451-.165-1.382.298-1.382z"/><path fill="#8A532D" d="M336.969 403.683h-1.67l-1.005 16H337.974z"/><path fill="#62E07B" d="M342.251 397.405h1.921c.463 0 .665-.931.3-1.385l-3.832-4.763c-.365-.454-.163-1.385.3-1.385h.868c.463 0 .665-.928.302-1.383l-3.107-3.887c-.363-.455-.161-1.383.302-1.383h.004c.463 0 .665-.929.301-1.384l-3.179-3.968c-.177-.221-.426-.221-.603.001l-3.172 3.968c-.364.455-.161 1.383.302 1.383.462 0 .665.928.302 1.383l-3.103 3.888c-.363.455-.161 1.383.302 1.383h.864c.463 0 .665.93.301 1.384l-3.828 4.763c-.365.454-.163 1.384.301 1.384h1.916c.463 0 .665.93.301 1.384l-7.359 9.157c-.365.454-.163 1.384.301 1.384h25.762c.463 0 .665-.931.3-1.385l-7.365-9.157c-.367-.451-.165-1.382.298-1.382z"/><path fill="#8A532D" d="M173.348 430.683h-2.819l-1.695 27H175.044z"/><path fill="#62E07B" d="M182.262 420.204h3.242c.782 0 1.123-1.571.507-2.337l-6.467-8.038c-.616-.766-.275-2.337.507-2.337h1.465c.781 0 1.122-1.566.509-2.334l-5.243-6.56c-.613-.768-.272-2.334.509-2.334h.007c.781 0 1.123-1.568.508-2.335l-5.365-6.697c-.299-.373-.719-.372-1.017.001l-5.353 6.697c-.613.767-.272 2.334.509 2.334.78 0 1.122 1.565.509 2.333l-5.236 6.561c-.613.768-.271 2.333.509 2.333h1.458c.782 0 1.123 1.57.507 2.336l-6.461 8.039c-.616.766-.275 2.336.507 2.336h3.233c.782 0 1.123 1.57.507 2.336l-12.42 15.453c-.616.766-.275 2.336.507 2.336h43.476c.782 0 1.123-1.571.507-2.337l-12.429-15.453c-.615-.762-.274-2.333.508-2.333z"/><path fill="#E3E3E3" d="M356.352 232.676c0 5.493 4.453 9.945 9.945 9.945h96.507c5.493 0 9.945-4.453 9.945-9.945 0-5.493-4.453-9.945-9.945-9.945h-22.837c-5.493 0-9.945-4.453-9.945-9.945 0-5.493-4.453-9.945-9.945-9.945h-104.61c-5.493 0-9.945 4.453-9.945 9.945 0 5.493 4.453 9.945 9.945 9.945h30.941c5.491-.001 9.944 4.452 9.944 9.945zM180.222 67.795c0-7.456-6.044-13.5-13.5-13.5h-131c-7.456 0-13.5 6.044-13.5 13.5s6.044 13.5 13.5 13.5h31c7.456 0 13.5 6.044 13.5 13.5s6.044 13.5 13.5 13.5h142c7.456 0 13.5-6.044 13.5-13.5s-6.044-13.5-13.5-13.5h-42c-7.455 0-13.5-6.044-13.5-13.5z"/><path fill="none" stroke="#4A4A4A" stroke-width="3" stroke-miterlimit="10" d="M386.5 363.683v-60M480.5 457.683v-28M372.358 285.936l117.42 156.5M378 364.183h17M425.5 355.683v14"/><g><path fill="#FF6650" d="M439.278 372.857c0-2.011-1.245-3.921-3.256-3.921h-21.463c-2.011 0-3.781 1.91-3.781 3.921v3.781h28.5v-3.781z"/><path fill="#E3E3E3" d="M411 376.683v12.49c0 2.011 1.548 3.51 3.559 3.51h21.463c2.011 0 2.978-1.499 2.978-3.51v-12.49h-28z"/></g><path fill="#4A4A4A" d="M419.633 378.455h10.79v8.5h-10.79z"/></g></svg>