<?xml version="1.0" encoding="utf-8"?>
<svg version="1.1" xmlns="http://www.w3.org/2000/svg" xmlns:xlink="http://www.w3.org/1999/xlink" x="0px" y="0px"
	 viewBox="0 0 300 320" style="enable-background:new 0 0 300 320;" xml:space="preserve">

<!-- <svg viewBox="0 0 300 320" preserveAspectRatio="xMidYMid meet" class="css-1y5supu" id="bhbbhfdb"> -->
<defs id="SvgjsDefs1030"></defs>
<g id="SvgjsG1031" featurekey="root" fill="#e1e1e1"></g>
<g id="SvgjsG1032" featurekey="container1" fill="#7d7d7d" transform="matrix(1.5266554374831305,0,0,1.5266554374831305,0,5)">
<defs xmlns="http://www.w3.org/2000/svg"></defs>
<g xmlns="http://www.w3.org/2000/svg">  
<path d="M98.254,0C44.077,0,0,44.076,0,98.254s44.077,98.254,98.254,98.254c54.177,0,98.254-44.076,98.254-98.254    S152.431,0,98.254,0z M98.254,195.508C44.628,195.508,1,151.88,1,98.254S44.628,1,98.254,1c53.626,0,97.254,43.628,97.254,97.254    S151.88,195.508,98.254,195.508z"></path>  
<path d="M98.254,5.453c-51.171,0-92.801,41.63-92.801,92.801s41.63,92.801,92.801,92.801s92.802-41.63,92.802-92.801    S149.425,5.453,98.254,5.453z">
</path>
</g></g>
<g id="SvgjsG1033" featurekey="text1" fill="#e1e1e1" transform="matrix(2.056401733936105,0,0,2.056401733936105,49.383080068160425,128.4018954757284)">
<path d="M0.3 16.3 c0 -2.54 1.42 -5.92 5.4 -5.92 c1.98 0 3.34 0.8 3.34 2.22 c0 0.26 -0.04 0.56 -0.14 0.86 l-3 0.56 c0.06 -0.24 0.1 -0.44 0.1 -0.6 c0 -0.48 -0.24 -0.72 -0.64 -0.72 c-1.26 0 -1.86 2.08 -1.86 3.64 c0 1.24 0.54 1.62 1.12 1.62 c0.64 0 1.06 -0.3 1.46 -1.28 l2.44 0.78 c-0.44 1.08 -1.3 2.82 -4.16 2.82 c-2.5 0 -4.06 -1.12 -4.06 -3.98 z M13.86 17.96 c1.34 0 1.92 -1.78 1.92 -3.52 c0 -0.9 -0.28 -1.74 -1.14 -1.74 c-1.38 0 -1.88 1.86 -1.88 3.5 c0 0.94 0.24 1.76 1.1 1.76 z M14.02 20.28 c-2.72 0 -4.4 -1.54 -4.4 -4 c0 -3.66 1.84 -5.9 4.9 -5.9 c2.86 0 4.44 1.46 4.44 4.08 c0 3.56 -1.94 5.82 -4.94 5.82 z M19.860000000000003 16.56 c0 -3.28 1.84 -6.18 4.8 -6.18 c0.66 0 1.54 0.26 1.98 0.88 l0.46 -3.36 l-1.06 0 l0.32 -2.26 l4.16 0 l-1.58 11.02 c-0.02 0.12 -0.04 0.36 -0.04 0.54 c0 0.4 0.18 0.52 0.4 0.52 c0.34 0 0.62 -0.18 0.62 -0.18 l-0.24 2.36 c-0.44 0.14 -1 0.22 -1.52 0.22 c-1.32 0 -2.12 -0.42 -2.12 -1.74 l-0.06 0 c-0.52 0.96 -1.6 1.9 -3.1 1.9 s-3.02 -0.94 -3.02 -3.72 z M23.96 17.96 c1.02 0 2.2 -1.9 2.2 -3.78 c0 -1.14 -0.46 -1.48 -1.04 -1.48 c-1.26 0 -2.1 1.8 -2.1 3.74 c0 0.96 0.24 1.52 0.94 1.52 z M36.14 16 l-1.98 0.7 c0.1 0.88 0.44 1.26 1.1 1.26 c0.7 0 1.26 -0.38 1.54 -1.1 l2.48 0.88 c-0.68 1.56 -1.96 2.54 -4.24 2.54 c-2.5 0 -3.94 -1.18 -3.94 -3.9 c0 -2.6 1.32 -6 5.44 -6 c1.64 0 3.16 0.66 3.16 2.44 c0 1.46 -0.94 2.26 -3.56 3.18 z M36 12.6 c-0.9 0 -1.52 0.9 -1.76 2.16 l0.9 -0.32 c1.04 -0.36 1.58 -0.62 1.58 -1.2 c0 -0.4 -0.14 -0.64 -0.72 -0.64 z M40.879999999999995 13.4 c0 -1.66 1.3 -3.02 4 -3.02 c1.74 0 3.72 0.58 3.72 2.12 c0 0.2 -0.04 0.44 -0.12 0.68 l-2.86 0.48 c0.02 -0.1 0.02 -0.22 0.02 -0.3 c0 -0.48 -0.22 -0.8 -0.82 -0.8 s-0.82 0.3 -0.82 0.72 c0 0.44 0.22 0.6 1.22 0.98 c1.04 0.4 2.82 1 2.82 2.98 c0 1.5 -1.02 3.04 -4.3 3.04 c-1.7 0 -3.72 -0.42 -3.72 -2.1 c0 -0.22 0.04 -0.44 0.1 -0.68 l2.74 -0.46 c-0.04 0.12 -0.04 0.22 -0.04 0.3 c0 0.48 0.38 0.74 1.1 0.74 c0.7 0 1.02 -0.24 1.02 -0.66 c0 -1.28 -4.06 -0.96 -4.06 -4.02 z  M53.379999999999995 20 l0.96 -7.08 l-1.06 0 l0.32 -2.26 l3.92 0 l-0.26 1.94 l0.1 0.04 c0.52 -1.2 1.3 -2.26 2.68 -2.26 c0.5 0 1.08 0.12 1.42 0.46 l-1.68 3.36 c-0.24 -0.24 -0.44 -0.34 -0.86 -0.34 c-1.62 0 -1.9 2.58 -2.14 4.2 l-0.34 1.94 l-3.06 0 z M65.44 17.96 c1.34 0 1.92 -1.78 1.92 -3.52 c0 -0.9 -0.28 -1.74 -1.14 -1.74 c-1.38 0 -1.88 1.86 -1.88 3.5 c0 0.94 0.24 1.76 1.1 1.76 z M65.6 20.28 c-2.72 0 -4.4 -1.54 -4.4 -4 c0 -3.66 1.84 -5.9 4.9 -5.9 c2.86 0 4.44 1.46 4.44 4.08 c0 3.56 -1.94 5.82 -4.94 5.82 z M75.74 17.96 c1.34 0 1.92 -1.78 1.92 -3.52 c0 -0.9 -0.28 -1.74 -1.14 -1.74 c-1.38 0 -1.88 1.86 -1.88 3.5 c0 0.94 0.24 1.76 1.1 1.76 z M75.9 20.28 c-2.72 0 -4.4 -1.54 -4.4 -4 c0 -3.66 1.84 -5.9 4.9 -5.9 c2.86 0 4.44 1.46 4.44 4.08 c0 3.56 -1.94 5.82 -4.94 5.82 z M82.08 20 l1 -7.08 l-1.06 0 l0.32 -2.26 l3.92 0 l-0.34 1.74 l0.06 0.02 c0.52 -0.9 1.66 -2.04 3.26 -2.04 c1.54 0 2.1 1.06 2.16 2.02 l0.06 0.02 c0.48 -0.9 1.72 -2.04 3.22 -2.04 c1.8 0 2.44 1.2 2.44 2.42 c0 0.98 -0.8 3.6 -0.8 4.36 c0 0.32 0.14 0.56 0.56 0.56 c0.3 0 0.58 -0.18 0.58 -0.18 l-0.26 2.36 c-0.44 0.14 -0.96 0.22 -1.44 0.22 c-1.96 0 -2.52 -1.14 -2.52 -2.48 c0 -1.42 0.68 -2.84 0.68 -3.78 c0 -0.42 -0.12 -0.64 -0.46 -0.64 c-1.16 0 -2.2 2.1 -2.42 3.7 l-0.44 3.08 l-3.06 0 l0.8 -5.98 c0 -0.06 0.02 -0.14 0.02 -0.2 c0 -0.48 -0.28 -0.6 -0.6 -0.6 c-0.78 0 -1.96 1.94 -2.2 3.7 l-0.42 3.08 l-3.06 0 z"></path>
</g>
</svg>