<?xml version="1.0" encoding="utf-8"?>

<svg version="1.1" 
    xmlns="http://www.w3.org/2000/svg" 
    xmlns:xlink="http://www.w3.org/1999/xlink" x="0px" y="0px" viewBox="0 0 300 247" preserveAspectRatio="xMidYMid meet" style="enable-background:new 0 0 300 247;" xml:space="preserve">

    <defs id="SvgjsDefs1227"></defs>
    <g id="SvgjsG1228" featurekey="root" fill="#f72145"></g>
    <g id="SvgjsG1229" featurekey="container1" fill="#47062d" transform="matrix(1,0,0,1,0,20)">
        <path xmlns="http://www.w3.org/2000/svg" fill-rule="evenodd" d=" M0,0 H300 V212 H0,0 z M2,2 H298 V210 H2,2 z M6,6 H294 V206 H6 z M8,8 H292 V204 H6,8 z "></path>
    </g>
    <g id="SvgjsG1230" featurekey="text1" fill="#47062d" transform="matrix(3.0719556763152,0,0,3.0719556763152,47.23524106317441,45.01771482569403)">
        <path d="M12.96 22.5 c-1.24 1.12 -2.9 1.7 -4.76 1.7 c-3.92 0 -7.3 -2.94 -7.3 -7.2 s3.38 -7.2 7.3 -7.2 c1.84 0 3.48 0.6 4.68 1.66 l-1.76 1.98 c-0.74 -0.52 -1.74 -0.9 -2.76 -0.9 c-2.52 0 -4.42 1.86 -4.42 4.46 s1.9 4.46 4.42 4.46 c1.06 0 2.1 -0.4 2.86 -1 z M21.82 9.8 c3.9 0 7.26 2.94 7.26 7.2 s-3.36 7.2 -7.26 7.2 s-7.26 -2.94 -7.26 -7.2 s3.36 -7.2 7.26 -7.2 z M21.82 21.46 c2.36 0 4.22 -1.86 4.22 -4.46 s-1.86 -4.46 -4.22 -4.46 s-4.22 1.86 -4.22 4.46 s1.86 4.46 4.22 4.46 z M36.18 10 c3.98 0 7.1 3.12 7.1 6.92 c0 3.96 -3.12 7.08 -7.1 7.08 l-5 0 l0 -14 l5 0 z M36.16 21.240000000000002 c2.68 0 4.12 -1.94 4.12 -4.32 c0 -2.22 -1.44 -4.16 -4.12 -4.16 l-2.06 0 l0 8.48 l2.06 0 z M48.199999999999996 21.32 l5.92 0 l0 2.68 l-6.32 0 l-2.52 0 l0 -14 l2.92 0 l5.74 0 l0 2.68 l-5.74 0 l0 2.96 l4.34 0 l0 2.64 l-4.34 0 l0 3.04 z M60.8 9.76 c2.46 0 4.02 1.54 4.76 2.9 l-2.16 1.28 c-0.76 -1.06 -1.5 -1.6 -2.6 -1.6 c-0.98 0 -1.7 0.58 -1.7 1.38 s0.46 1.22 1.56 1.62 l0.96 0.34 c3.1 1.1 4.32 2.48 4.32 4.4 c0 2.82 -2.68 4.22 -5.06 4.22 c-2.52 0 -4.48 -1.5 -5.16 -3.46 l2.24 -1.18 c0.5 1.02 1.34 2 2.92 2 c1.14 0 2.02 -0.5 2.02 -1.54 c0 -1 -0.6 -1.44 -2.12 -2.02 l-0.86 -0.3 c-2.06 -0.74 -3.72 -1.76 -3.72 -4.2 c0 -2.24 2.1 -3.84 4.6 -3.84 z"></path>
    </g>
    <g id="SvgjsG1231" featurekey="text2" fill="#47062d" transform="matrix(3.304664290861901,0,0,3.304664290861901,46.034400329706955,97.61428931923868)">
        <path d="M12.22 24 l-3.1 0 l-2.98 -4.66 l-0.04 0 l-1.98 0 l0 4.66 l-2.92 0 l0 -14 l4.9 0 c3.14 0 5.18 1.9 5.18 4.76 c0 1.9 -0.92 3.32 -2.48 4.04 z M4.12 12.68 l0 4.14 l1.8 0 c1.44 0 2.44 -0.56 2.44 -2.06 c0 -1.48 -1 -2.08 -2.44 -2.08 l-1.8 0 z M20.98 9.8 c3.9 0 7.26 2.94 7.26 7.2 s-3.36 7.2 -7.26 7.2 s-7.26 -2.94 -7.26 -7.2 s3.36 -7.2 7.26 -7.2 z M20.98 21.46 c2.36 0 4.22 -1.86 4.22 -4.46 s-1.86 -4.46 -4.22 -4.46 s-4.22 1.86 -4.22 4.46 s1.86 4.46 4.22 4.46 z M37.3 9.8 c3.9 0 7.26 2.94 7.26 7.2 s-3.36 7.2 -7.26 7.2 s-7.26 -2.94 -7.26 -7.2 s3.36 -7.2 7.26 -7.2 z M37.3 21.46 c2.36 0 4.22 -1.86 4.22 -4.46 s-1.86 -4.46 -4.22 -4.46 s-4.22 1.86 -4.22 4.46 s1.86 4.46 4.22 4.46 z M61.66 10 l0 14 l-3 0 l0 -7.44 l-3.26 7.44 l-2.52 0 l-3.22 -7.4 l0 7.4 l-3 0 l0 -14 l2.88 0 l4.62 10.1 l4.62 -10.1 l2.88 0 z"></path>
    </g>
</svg>